<?xml version="1.0" encoding="UTF-8"?>
<!DOCTYPE svg PUBLIC "-//W3C//DTD SVG 1.1//EN" "http://www.w3.org/Graphics/SVG/1.1/DTD/svg11.dtd">
<!-- Creator: CorelDRAW -->
<svg xmlns="http://www.w3.org/2000/svg" xml:space="preserve" width="375.97mm" height="386.368mm" version="1.1" style="shape-rendering:geometricPrecision; text-rendering:geometricPrecision; image-rendering:optimizeQuality; fill-rule:evenodd; clip-rule:evenodd"
viewBox="0 0 3455.59 3551.16"
 xmlns:xlink="http://www.w3.org/1999/xlink"
 xmlns:xodm="http://www.corel.com/coreldraw/odm/2003">
 <defs>
  <style type="text/css">
   <![CDATA[
    .str0 {stroke:#373435;stroke-width:1.84;stroke-miterlimit:22.9256}
    .fil1 {fill:#FEFEFE}
    .fil0 {fill:#373435}
    .fil2 {fill:url(#id0)}
    .fil4 {fill:url(#id1)}
    .fil3 {fill:url(#id2)}
   ]]>
  </style>
  <linearGradient id="id0" gradientUnits="userSpaceOnUse" x1="2502.47" y1="1320.09" x2="2168.06" y2="467.71">
   <stop offset="0" style="stop-opacity:1; stop-color:#91022D"/>
   <stop offset="0.529412" style="stop-opacity:1; stop-color:#AE0C3D"/>
   <stop offset="1" style="stop-opacity:1; stop-color:#CC164D"/>
  </linearGradient>
  <linearGradient id="id1" gradientUnits="userSpaceOnUse" x1="1767.93" y1="2992.67" x2="1687.66" y2="401.3">
   <stop offset="0" style="stop-opacity:1; stop-color:#32030C"/>
   <stop offset="0.619608" style="stop-opacity:1; stop-color:#520519"/>
   <stop offset="1" style="stop-opacity:1; stop-color:#730727"/>
  </linearGradient>
  <linearGradient id="id2" gradientUnits="userSpaceOnUse" xlink:href="#id0" x1="1000.43" y1="1185.62" x2="747.9" y2="447.17">
  </linearGradient>
 </defs>
 <g id="Capa_x0020_1">
  <metadata id="CorelCorpID_0Corel-Layer"/>
  <g id="_1739923126720">
   <path class="fil0 str0" d="M1727.8 96.48c-254.47,0 -496.07,55.07 -713.57,153.9 -132.11,-62.26 -320.7,-108.58 -565.8,-138.94l-10.85 564.28c-271.57,305.08 -436.65,707.05 -436.65,1147.64 0,953.73 773.15,1726.88 1726.88,1726.88 953.73,0 1726.88,-773.15 1726.88,-1726.88 0,-568.26 -274.5,-1072.4 -698.13,-1387.07l-6.96 -361.84c-200.26,24.81 -362.78,60.27 -487.61,106.37 -168.22,-54.67 -347.72,-84.35 -534.18,-84.35z"/>
   <g>
    <path class="fil1" d="M2524.88 2366.56c-27.19,-0.75 -23.72,-4.81 -49.19,-8.66 -42.08,72.52 -3.59,95 -137.19,298.58 -197.57,301.05 -436.02,172.76 -581.45,520.81 -24.26,58.05 -35.66,147.87 -37.81,216.46l8.74 -0.39 -0.18 0.6c52.13,0 103.67,-2.52 154.5,-7.45l0.04 -0 0 -0c0.11,0.05 0.18,0.04 0.22,-0.02l-0.22 0.02c21.46,-153.18 1.02,-148.92 123,-277.51 79.6,-83.91 146.07,-86.48 241.59,-146.66 70.95,-44.7 154.55,-116.61 199.91,-189.38 67.89,-108.89 121.23,-246.67 133.17,-263.18 28.9,66.51 169.46,313.53 172.08,343.94 -30.06,13.27 -56,35.86 -80.92,54.62 -57.57,43.32 -198.87,148.49 -247.78,173.6 -267.03,137.03 -314.7,105.63 -308.15,264.25 257.47,-64.83 489.85,-192.8 679.72,-366.47 123.95,-106.81 231.9,-232.02 306.05,-370.4 7.76,-17.46 15.2,-34.9 22.43,-52.31 118.66,-221.92 185.99,-475.41 185.99,-744.64 0,-436.72 -177.01,-832.09 -463.19,-1118.3l-0.06 -0.07c-22.71,-25.75 -6.15,-48.67 -18.29,-91.27 -42.85,-150.47 -2.07,-492.77 -36.38,-590.56 -184.54,4.86 -397.99,67.28 -563.71,129.4 -47.79,17.91 -169.21,85.22 -226.52,112.74 -88.84,-15.49 -180.22,-23.56 -273.48,-23.56 -180.65,0 -354.21,30.29 -515.91,86.06 -8.23,-5.74 -18.85,-17.74 -43.21,-38.07 -176.32,-147.11 -392.15,-212.86 -614.95,-251.26 -38.72,-6.67 -182.49,-29.84 -205.2,-27.27 7.95,205.8 9.01,416.73 13.9,623.38 3.44,174.64 -12.82,319.44 -41.34,465.09 -111.79,216.86 -174.91,462.9 -174.91,723.69 0,584.73 317.31,1095.35 789.13,1369.06l-0.26 -0.86c6.28,3.91 12.56,7.78 18.88,11.49l-0.34 -705.93c-0.06,-153.99 24.18,-128.86 -28.46,-166.18 -13.32,-9.45 -8.98,-3.14 -12.38,-11.36 -94.17,-50.62 -169.96,-200.39 -165.15,-332.8 1.75,-48.21 20.94,-95.08 19.51,-137.5 -2.38,-5.44 -71.56,-39.93 -89.62,-162.24 -29.19,-197.66 121.16,-287.36 224.33,-207.59 67.62,52.28 26.54,90.13 169.38,66.69 13.73,-89.24 -70.11,-169.07 -108.71,-200.08 -143.73,-115.47 -191.6,-17.5 -299.17,14.22 -39.09,-2.83 -154.88,-168.05 -178.29,-289.06 -45.24,-233.86 15.36,-257.59 24.63,-406.6l-9.37 -481.37c45.08,11.6 93.62,15.76 140.19,27.88 278.88,72.56 601.12,215.99 627.73,552.68 93.6,-12.32 205.51,-23.3 300.49,-27.57 68.38,-3.07 260.01,20.94 293.61,13.75 31.38,-73.71 8.64,-113.91 97.14,-234.77 128.63,-175.69 499.71,-312.98 664.3,-326.01l18.59 8.07c-0.79,116.27 9.21,307.14 30.21,418.43 25.99,137.72 83.18,199.53 71.22,367.39 -8.5,119.3 -49.95,261.51 -110.21,327.8 -140.21,154.23 -247.89,131.02 -278.59,157.76 67.09,58.62 115.4,91.41 241.61,82.62l9.7 190.4 -545.4 12.7c20.23,-145.93 47.49,-220.98 -36.68,-336.32 -131.82,-180.64 -418.07,-187.22 -533.75,20.66 -105.02,188.72 58.95,283.94 -99.91,264.26 -97.61,-0.58 -186.52,0.77 -283.47,4.87 -82.83,3.5 -138.9,33.49 -189.47,97.32 -67.37,85.04 -31.31,309.19 57.33,386.72l35.81 32.78c41.42,-18.77 35.39,-20.17 65.04,-40.41 59.62,31.48 109.3,160.64 314.73,158.04 116.07,-1.47 218.23,-51.09 263.2,-157.01l20.29 -46.07 135.95 6.17c14.14,180.93 -252.08,456.52 -591.12,329.05 -48.07,-18.07 -62.53,-35.12 -94.99,-51.42l5.08 864.64c0.62,0.27 1.38,0.58 2.19,0.89 120.38,49.07 248.16,83.74 381.2,101.86l0.01 0 0 -0 2.22 0.31c-0.41,0.48 -1.16,0.37 -2.22,-0.31 -4.27,-79.22 12.29,-193.03 36.35,-265.54 63.25,-190.69 245.6,-338.25 423.6,-434.71 126.07,-68.32 206.96,-148.29 263.83,-303.5 69.93,-190.86 -6.22,-325.6 -77.95,-459.01l447.27 -7.77c0.85,90.46 29.5,460.72 -80.54,457.69zm-758.53 -947.49c-94.86,0 -171.76,76.9 -171.76,171.75 0,94.86 76.9,171.76 171.76,171.76 94.85,0 171.75,-76.9 171.75,-171.76 0,-94.85 -76.9,-171.75 -171.75,-171.75zm-696.64 417.23c-45.37,3.54 -81.14,0.74 -89.39,44.25 -3.3,17.41 7.29,103.18 12.69,120.88 41.59,136.11 310.01,60.14 270.55,-108.79 -17.58,-75.26 -115.6,-62.44 -193.85,-56.34zm245.92 -299.42c31.57,-93.83 -11.17,-242.91 32.33,-371.65 36.12,-126.02 151.04,-194.67 244.12,-264.26 -61.28,-8.59 -193.73,-3.72 -245.49,19.02 -70.39,30.93 -93.04,74.25 -130.06,136.43 -56.86,95.51 -45.17,363.92 -26.09,489.33l125.18 -8.88z"/>
    <path class="fil2" d="M2541.1 747.4l-13.82 -333.67c-122.91,7.02 -287.79,106.11 -351.69,168.32 -100.81,98.15 -128.14,220.67 -101.73,401.25 15.05,61.89 51.86,24.91 86.51,69.55 61.52,79.27 117.78,274.65 146.03,321.16 29.96,1.99 129.13,-58.05 157.99,-81.66 111.45,-91.13 141.08,-209.41 141.72,-352.61 0.25,-54.91 -17.16,-157.35 -65.02,-192.34z"/>
    <path class="fil3" d="M678.6 747.4l13.82 -333.67c122.91,7.02 287.79,106.11 351.69,168.32 97.37,110.19 109.17,193.01 69,347.78 -10.37,42.65 -59.63,77.65 -108.12,212.6 -121.55,-17.99 -274.81,52.71 -318.67,76.62 -55.44,-78.44 -72.25,-171.86 -72.73,-279.32 -0.25,-54.91 17.16,-157.35 65.02,-192.34z"/>
   </g>
   <path class="fil4" d="M341.29 1417.67c-15.64,49.79 -28.56,100.36 -38.72,151.52l255.59 0c6.72,-25.36 16.22,-49.82 28.74,-72.75 -30.69,-18.16 -59.96,-45.9 -86.74,-78.77l-158.87 0zm-65.72 384.45c-1.78,50.51 -0.96,101.1 2.48,151.52l348.07 0c1.62,-8.96 3.43,-17.92 5.31,-26.97 -30.89,-36.68 -52.54,-78.09 -66.58,-124.55l-289.28 0zm37.51 384.45c12.07,51.45 26.9,102.03 44.37,151.52l359.51 0c-31.66,-45.8 -56.3,-97.93 -72.97,-151.52l-330.91 0zm150.57 384.45c91.49,161.29 213.8,304.96 361.67,422.12l-0.2 -422.12 -361.47 0zm1442.84 -2159.3c-59.26,-7.26 -118.96,-10.87 -178.69,-10.87 -151.38,0 -301.54,23.23 -445.51,69.54 39.22,53.72 70.1,114.23 90.15,182.47 63.48,-6.51 127.24,-11.48 190.52,-14.32 52.14,-2.34 110.42,3.6 162.68,7.67 11.78,0.92 25.23,2.24 39.2,3.53 0.21,-0.79 0.42,-1.58 0.63,-2.37 17.91,-66.2 50.02,-122.34 90.34,-177.41 14.42,-19.69 31.47,-39.16 50.7,-58.25zm941.32 2377.57c52.85,-60.1 99.96,-125.29 137.74,-194.92 3.42,-7.76 6.79,-15.54 10.12,-23.34l-263.36 0c18.88,35.94 39.26,71.96 57.17,105.82 14.31,27.06 38.5,70.11 58.33,112.44zm250.5 -451.19c17.56,-49.7 32.35,-100.28 44.35,-151.52l-406 0c-1.66,50.32 -5.75,102.33 -16.15,151.52l377.8 0zm79.25 -384.45c2.24,-33.08 3.38,-66.32 3.38,-99.65 0,-17.33 -0.32,-34.62 -0.93,-51.87l-443.57 0c1.62,31.86 4.15,63.69 4.87,95.58l1.26 55.94 435 0zm-24.58 -384.45c-10.19,-51.29 -23.13,-101.86 -38.73,-151.52l-376.67 0c-2.94,3.52 -5.92,6.96 -8.96,10.3 -5.25,5.78 -10.58,11.47 -15.99,17.08l5.6 -0.39 6.34 124.53 428.41 0zm-134.94 -384.45c-40.88,-78.7 -89.09,-153.83 -144.27,-224.43 0.31,20.36 -0.32,41.12 -1.85,62.56 -3.54,49.66 -12.22,105.87 -26.49,161.86l172.61 0z"/>
   <circle class="fil1 str0" cx="1755.57" cy="1522.75" r="25.93"/>
   <circle class="fil1 str0" cx="808.26" cy="1522.75" r="25.93"/>
  </g>
 </g>
</svg>
