<?xml version="1.0" encoding="UTF-8"?>
<!DOCTYPE svg PUBLIC "-//W3C//DTD SVG 1.1//EN" "http://www.w3.org/Graphics/SVG/1.1/DTD/svg11.dtd">
<!-- Creator: CorelDRAW -->
<svg xmlns="http://www.w3.org/2000/svg" xml:space="preserve" width="72.1518mm" height="74.096mm" version="1.1" style="shape-rendering:geometricPrecision; text-rendering:geometricPrecision; image-rendering:optimizeQuality; fill-rule:evenodd; clip-rule:evenodd"
viewBox="0 0 56.8 58.33"
 xmlns:xlink="http://www.w3.org/1999/xlink"
 xmlns:xodm="http://www.corel.com/coreldraw/odm/2003">
 <defs>
  <style type="text/css">
   <![CDATA[
    .fil0 {fill:#FEFEFE;fill-rule:nonzero}
   ]]>
  </style>
 </defs>
 <g id="Capa_x0020_1">
  <metadata id="CorelCorpID_0Corel-Layer"/>
  <path class="fil0" d="M24.98 43.89c11.48,-17.18 21.79,-31.97 31.82,-43.82 -4.95,-0.26 -7.85,0.19 -8.9,1.11 -4.95,4.34 -13.66,14.6 -23.98,32.19 -1.72,2.94 -2.68,1.07 -3.98,-3.56 -0.9,-3.2 -2.78,-3.31 -7.02,-1.15 -2.93,1.5 0.64,9.87 2.46,15.24 1.42,4.21 6.21,5.06 9.6,-0.01z"/>
  <path class="fil0" d="M28.23 6.6c3.7,0 7.19,0.85 10.31,2.37 1.01,-1.26 2.05,-2.5 3.13,-3.7 -3.99,-2.16 -8.57,-3.39 -13.43,-3.39 -15.59,0 -28.23,12.64 -28.23,28.23 0,15.59 12.64,28.23 28.23,28.23 15.59,0 28.23,-12.64 28.23,-28.23 0,-7.06 -2.59,-13.52 -6.88,-18.47 -0.98,1.29 -1.95,2.58 -2.92,3.88 3.18,4.01 5.07,9.08 5.07,14.59 0,12.98 -10.52,23.51 -23.51,23.51 -12.98,0 -23.51,-10.52 -23.51,-23.51 0,-12.98 10.52,-23.51 23.51,-23.51z"/>
 </g>
</svg>
